<mxfile host="app.diagrams.net" agent="Mozilla/5.0 (Windows NT 10.0; Win64; x64) AppleWebKit/537.36 (KHTML, like Gecko) Chrome/133.0.0.0 Safari/537.36" version="26.0.16">
  <diagram name="Page-1" id="53KFugsAZ4gvpESUQWtu">
    <mxGraphModel dx="1290" dy="522" grid="1" gridSize="10" guides="1" tooltips="1" connect="1" arrows="1" fold="1" page="1" pageScale="1" pageWidth="827" pageHeight="1169" math="0" shadow="0">
      <root>
        <mxCell id="0" />
        <mxCell id="1" parent="0" />
        <mxCell id="R4ziwP-UMa5_qTA2soAj-1" value="Routing_Model" style="swimlane;fontStyle=1;align=center;verticalAlign=top;childLayout=stackLayout;horizontal=1;startSize=26;horizontalStack=0;resizeParent=1;resizeParentMax=0;resizeLast=0;collapsible=1;marginBottom=0;whiteSpace=wrap;html=1;" parent="1" vertex="1">
          <mxGeometry x="270" y="50" width="410" height="590" as="geometry" />
        </mxCell>
        <mxCell id="R4ziwP-UMa5_qTA2soAj-2" value="+ _current_path: path&lt;div&gt;+_current_grib: grib&lt;/div&gt;&lt;div&gt;+_current_bearing: int&lt;/div&gt;&lt;div&gt;+_angle_step: float&lt;/div&gt;&lt;div&gt;+_upwind_tack: boolean&lt;/div&gt;&lt;div&gt;&lt;br&gt;&lt;/div&gt;" style="text;strokeColor=none;fillColor=none;align=left;verticalAlign=top;spacingLeft=4;spacingRight=4;overflow=hidden;rotatable=0;points=[[0,0.5],[1,0.5]];portConstraint=eastwest;whiteSpace=wrap;html=1;" parent="R4ziwP-UMa5_qTA2soAj-1" vertex="1">
          <mxGeometry y="26" width="410" height="94" as="geometry" />
        </mxCell>
        <mxCell id="R4ziwP-UMa5_qTA2soAj-3" value="" style="line;strokeWidth=1;fillColor=none;align=left;verticalAlign=middle;spacingTop=-1;spacingLeft=3;spacingRight=3;rotatable=0;labelPosition=right;points=[];portConstraint=eastwest;strokeColor=inherit;" parent="R4ziwP-UMa5_qTA2soAj-1" vertex="1">
          <mxGeometry y="120" width="410" height="8" as="geometry" />
        </mxCell>
        <mxCell id="R4ziwP-UMa5_qTA2soAj-4" value="+ init(path: Path, grib: GRIB): None&lt;div&gt;+&lt;i&gt;_create_path: None&lt;/i&gt;&lt;/div&gt;&lt;div&gt;+_check_in_water(lat: float, lon: float) : boolean&lt;/div&gt;&lt;div&gt;+&lt;i&gt;create_big_circle_route(ignore_exception: boolean): None&lt;/i&gt;&lt;br&gt;&lt;div&gt;+&lt;i&gt;straight_line_distance(gcr_flag: boolean): float&lt;/i&gt;&lt;/div&gt;&lt;/div&gt;&lt;div&gt;+&lt;i&gt;create_big_circle_route_online(ignore_exception: boolean): None&lt;/i&gt;&lt;/div&gt;&lt;div&gt;+create_big_circle_route_online_v2: None&lt;/div&gt;&lt;div&gt;+create_big_circle_route: None&lt;/div&gt;&lt;div&gt;+decompose_time(twa: float, distance: float, ws_mag: float): float&lt;/div&gt;&lt;div&gt;+find_time_for_distance(distance: float): float&lt;/div&gt;&lt;div&gt;+&lt;i&gt;upwind_twa_bearing_finder(lat:float, lon: float, time: datetime): None&lt;/i&gt;&lt;/div&gt;&lt;div&gt;+_straight_line_distance_online(gcr_flag: boolean): float&lt;/div&gt;&lt;div&gt;+_straight_line_distance_v2(gcr_flag: boolean): float&lt;/div&gt;&lt;div&gt;+&lt;i&gt;_straight_line_distance_onlne_only(gcr_flag: boolean): None&lt;/i&gt;&lt;/div&gt;&lt;div&gt;+&lt;i&gt;_distance_from_current_to_end(gcr_flag: boolean): float&lt;/i&gt;&lt;/div&gt;&lt;div&gt;+_distance_from_current_to_end_v2(gcr_flag: boolean): float&lt;/div&gt;&lt;div&gt;+_route_single_point(gcr_flag: boolean, lat:float, lon: float): tuple&lt;/div&gt;&lt;div&gt;+_route_single_point_online(gcr_flag: boolean, lat: float, lon: float): tuple&lt;/div&gt;&lt;div&gt;+&lt;i&gt;_windspeed_magnitude_in_knts(u:float, v:float): float&lt;/i&gt;&lt;/div&gt;&lt;div&gt;+&lt;i&gt;find_windspeed_info(lat:float, lon: float, dtime: datetime): tuple&lt;/i&gt;&lt;/div&gt;&lt;div&gt;+&lt;i&gt;_get_new_grib(dtime: datetime): none&lt;/i&gt;&lt;/div&gt;&lt;div&gt;+_find_twa(u:float, v: float): float&lt;/div&gt;&lt;div&gt;+_find_twa_mag_bear(wind_heading: float): float&lt;/div&gt;&lt;div&gt;+&lt;i&gt;_angle_to_destination_gcr(delta_lat: float, delta_lon: float): float&lt;/i&gt;&lt;/div&gt;&lt;div&gt;+_angle_to_destination_gcr_v2(start_lat: float, end_lat: float, start_lon: float, end_lon: float): float&lt;/div&gt;&lt;div&gt;+&lt;i&gt;run_isometric: none&lt;/i&gt;&lt;/div&gt;&lt;div&gt;+&lt;i&gt;isometric(lat: float, lon: float, time: datetime, cur_path: list): list&lt;/i&gt;&lt;/div&gt;&lt;div&gt;+&lt;i&gt;route_iso_point(lat:float, lon: float, time:datetime): tuple&lt;/i&gt;&lt;/div&gt;&lt;div&gt;+&lt;i&gt;isometric_online(lat: float, lon: float, time: datetime, cur_path: list): list&lt;/i&gt;&lt;/div&gt;&lt;div&gt;+&lt;i&gt;route_iso_point_online(lat:float, lon: float, time:datetime): tuple&lt;/i&gt;&lt;/div&gt;&lt;div&gt;&lt;br&gt;&lt;/div&gt;" style="text;strokeColor=none;fillColor=none;align=left;verticalAlign=top;spacingLeft=4;spacingRight=4;overflow=hidden;rotatable=0;points=[[0,0.5],[1,0.5]];portConstraint=eastwest;whiteSpace=wrap;html=1;" parent="R4ziwP-UMa5_qTA2soAj-1" vertex="1">
          <mxGeometry y="128" width="410" height="462" as="geometry" />
        </mxCell>
      </root>
    </mxGraphModel>
  </diagram>
</mxfile>
